<?xml version="1.0" encoding="UTF-8"?><svg width="24px" height="25px" viewBox="0 0 24 25" version="1.1" xmlns="http://www.w3.org/2000/svg" xmlns:xlink="http://www.w3.org/1999/xlink">\r\n<g id="Page-1" stroke="none" stroke-width="1" fill="none" fill-rule="evenodd"><g id="loading" transform="translate(-50.000000, -45.000000)" fill="#2D2D2D"><g id="a" transform="translate(50.000000, 45.000000)"><g id="Shape"><g id="Page-1"><path d="M12.0943984,19.9996697 C8.55002376,19.9996697 5.30341587,17.2294005 5.30341587,12.2673911 C5.30341587,8.37309605 7.73686712,4.59960313 12.1172061,4.59960313 C14.0149939,4.59960313 18.825194,5.24545398 18.825194,12.2673911 C18.825194,19.3072597 13.8024392,19.9996697 12.0943984,19.9996697 L12.0943984,19.9996697 L12.0943984,19.9996697 Z M24,1.01517812 C24,0.795280538 23.818489,0.615650322 23.5980149,0.615650322 L19.3187266,0.615650322 C19.0979357,0.615650322 18.9170582,0.795280538 18.9170582,1.01517812 L18.9170582,2.1300809 C18.9170582,2.31757584 18.790349,2.38238114 18.636714,2.27353341 C17.1143023,1.17656219 14.8626788,0 12.1530014,0 C10.6305897,0 9.17628426,0.266142142 7.83094873,0.790561707 C6.48371258,1.31529586 5.2052162,2.11498064 4.03030462,3.16790941 C2.69225491,4.37593051 1.67446281,5.75351493 1.00733858,7.26070998 C0.33831371,8.76884878 0,10.4531573 0,12.2673911 C0,13.9605081 0.299984162,15.5466649 0.891082837,16.9818191 C1.48249828,18.4166587 2.38245077,19.7442236 3.56686553,20.9270775 C4.75159707,22.1108753 6.07570878,23.0102847 7.50245498,23.6007679 C8.92793412,24.1909365 10.4997624,24.4897959 12.1748588,24.4897959 C15.0559104,24.4897959 17.2172536,23.2720226 18.632596,22.1640408 C18.7890819,22.0466991 18.9170582,22.1099315 18.9170582,22.3040328 L18.9170582,23.4739886 C18.9170582,23.6935716 19.0979357,23.8732018 19.3187266,23.8732018 L23.5980149,23.8732018 C23.818489,23.8732018 24,23.6935716 24,23.4739886 L24,1.01517812 L24,1.01517812 Z" id="Shape"></path></g></g></g></g></g></svg>
