<svg xmlns="http://www.w3.org/2000/svg" width="20" height="20" viewBox="0 0 20 20">
  <defs>
    <filter id="a" width="101.9%" height="105.4%" x="-.9%" y="-1.9%" filterUnits="objectBoundingBox">
      <feOffset dy="1" in="SourceAlpha" result="shadowOffsetOuter1"/>
      <feGaussianBlur in="shadowOffsetOuter1" result="shadowBlurOuter1" stdDeviation="1"/>
      <feColorMatrix in="shadowBlurOuter1" result="shadowMatrixOuter1" values="0 0 0 0 0 0 0 0 0 0 0 0 0 0 0 0 0 0 0.1 0"/>
      <feMerge>
        <feMergeNode in="shadowMatrixOuter1"/>
        <feMergeNode in="SourceGraphic"/>
      </feMerge>
    </filter>
  </defs>
  <g fill="#2D2D2D" fill-rule="evenodd" filter="url(#a)" transform="translate(-14 -18)">
    <path fill-rule="nonzero" d="M25 35a7 7 0 1 1 0-14 7 7 0 0 1 0 14zm0-16a9 9 0 1 0 0 18 9 9 0 0 0 0-18z"/>
    <path d="M24 27v6h2v-6h-2zm0-3c0 .548.452 1 1 1s1-.452 1-1-.452-1-1-1-1 .452-1 1z"/>
  </g>
</svg>
