<svg xmlns="http://www.w3.org/2000/svg" width="20" height="20" viewBox="0 0 20 20">
  <g fill="#2D2D2D" fill-rule="evenodd">
    <path fill-rule="nonzero" d="M4.667 14h11.339c1.1 0 1.994-.9 1.994-2.009V4.01A2.003 2.003 0 0 0 16.006 2H3.994C2.894 2 2 2.9 2 4.009V16l2.667-2zm.666 2L0 20V4.009A4.002 4.002 0 0 1 3.994 0h12.012C18.215 0 20 1.8 20 4.009v7.982A4.002 4.002 0 0 1 16.006 16H5.333z"/>
    <path d="M6 8.333c-.552 0-1-.373-1-.833 0-.46.448-.833 1-.833S7 7.04 7 7.5c0 .46-.448.833-1 .833zm4 0c-.552 0-1-.373-1-.833 0-.46.448-.833 1-.833s1 .373 1 .833c0 .46-.448.833-1 .833zm4 0c-.552 0-1-.373-1-.833 0-.46.448-.833 1-.833s1 .373 1 .833c0 .46-.448.833-1 .833z"/>
  </g>
</svg>
