<svg xmlns="http://www.w3.org/2000/svg" width="88" height="88" viewBox="0 0 88 88">
  <g fill="none" fill-rule="evenodd">
    <g fill="#FFD95A">
      <path d="M29 0h30v88H29z"/>
      <path d="M18 6h52v76H18z"/>
      <path d="M12 12h64v64H12z"/>
      <path d="M6 18h76v52H6z"/>
      <path d="M0 30h88v28H0z"/>
      <g opacity=".6" style="mix-blend-mode:multiply">
        <path d="M29 0h30v88H29z"/>
        <path d="M18 6h52v76H18z"/>
        <path d="M12 12h64v64H12z"/>
        <path d="M6 18h76v52H6z"/>
        <path d="M0 30h88v28H0z"/>
      </g>
    </g>
    <path fill="#2D2D2D" d="M23 51h42v6H23zM29 57h30v6H29zM35 63h18v6H35zM24 37h6v6h-6zM58 37h6v6h-6zM24 31h6v6h-6zM58 31h6v6h-6z"/>
  </g>
</svg>
