<svg xmlns="http://www.w3.org/2000/svg" width="88" height="88" viewBox="0 0 88 88">
  <g fill="none" fill-rule="evenodd">
    <g fill="#FFD95A">
      <path d="M29 0h30v88H29z"/>
      <path d="M18 6h52v76H18z"/>
      <path d="M12 12h64v64H12z"/>
      <path d="M6 18h76v52H6z"/>
      <path d="M0 30h88v28H0z"/>
      <g opacity=".6" style="mix-blend-mode:multiply">
        <path d="M29 0h30v88H29z"/>
        <path d="M18 6h52v76H18z"/>
        <path d="M12 12h64v64H12z"/>
        <path d="M6 18h76v52H6z"/>
        <path d="M0 30h88v28H0z"/>
      </g>
    </g>
    <path fill="#2D2D2D" d="M22 29h6v6h-6zM60 29h6v6h-6zM16 35h6v6h-6zM54 35h6v6h-6zM28 35h6v6h-6zM66 35h6v6h-6zM29 55h6v6h-6zM53 55h6v6h-6z"/>
    <path fill="#D01345" d="M59 49h12v6H59zM17 49h12v6H17z" opacity=".6"/>
    <path fill="#2D2D2D" d="M35 61h18v6H35z"/>
  </g>
</svg>
