<svg xmlns="http://www.w3.org/2000/svg" xmlns:xlink="http://www.w3.org/1999/xlink" width="20" height="18" viewBox="0 0 20 18">
  <defs>
    <path id="a" d="M9.966 3.105l.17-.166A4.772 4.772 0 0 1 13.4 1.636c2.705-.003 4.9 2.271 4.903 5.08.009 6.458-8.321 9.92-8.321 9.92S1.644 13.195 1.636 6.74C1.634 3.93 3.823 1.65 6.527 1.645A4.778 4.778 0 0 1 9.796 2.94l.17.165z"/>
  </defs>
  <g fill="none" fill-rule="evenodd">
    <mask id="b" fill="#fff">
      <use xlink:href="#a"/>
    </mask>
    <use fill="#FFF" fill-rule="nonzero" xlink:href="#a"/>
    <g mask="url(#b)">
      <path fill="#BD10E0" d="M20 16H.364v-3H20z"/>
      <path fill="#0770CF" d="M20 13H.364v-2H20z"/>
      <path fill="#00AA5B" d="M20 11H.364V9H20z"/>
      <path fill="#F8E71C" d="M20 9H.364V7H20z"/>
      <path fill="#F5A623" d="M20 7H.364V5H20z"/>
      <path fill="#D0021B" d="M20 5H.364V2H20z"/>
    </g>
    <path fill="#FFF" fill-rule="nonzero" d="M10.618 15.474a21.327 21.327 0 0 0 3.137-2.076c2.697-2.166 4.249-4.619 4.245-7.299-.003-2.284-1.757-4.101-3.881-4.099-1.016 0-1.97.417-2.69 1.158l-1.43 1.467-1.432-1.463a3.748 3.748 0 0 0-2.695-1.151C3.749 2.013 1.998 3.837 2 6.12c.003 2.677 1.559 5.123 4.256 7.281a21.32 21.32 0 0 0 3.756 2.39c.191-.096.394-.202.606-.318zM9.996 1.763l.203-.2A5.726 5.726 0 0 1 14.116 0c3.246-.004 5.88 2.725 5.884 6.097C20.01 13.845 10.014 18 10.014 18S.01 13.87 0 6.124C-.003 2.752 2.624.014 5.87.01A5.733 5.733 0 0 1 9.79 1.564l.205.199z"/>
  </g>
</svg>
