<svg xmlns="http://www.w3.org/2000/svg" width="23" height="21" viewBox="0 0 23 21">
  <g fill="none" fill-rule="nonzero">
    <path fill="#FFF" d="M10.996 2.763l.203-.2A5.726 5.726 0 0 1 15.116 1C18.362.996 20.996 3.725 21 7.097 21.01 14.845 11.014 19 11.014 19S1.01 14.87 1 7.124C.997 3.752 3.624 1.014 6.87 1.01a5.733 5.733 0 0 1 3.921 1.553l.205.199z"/>
    <path fill="#FFF" d="M5 15.333V15h1v1h-.333l-.167.5-.5.5v3H4v-2l-1 1v2H2v-2H0v-1h2l1-1H1v-1h3l.5-.5.5-.167zM23 0h-4v1h2l-4.359 3.47.938 1.144L22 2v2h1z"/>
  </g>
</svg>
