<svg xmlns="http://www.w3.org/2000/svg" width="40" height="41" viewBox="0 0 40 41">
  <path fill="#BD081C" fill-rule="evenodd" d="M0 20C0 8.954 8.952 0 20 0c11.046 0 20 8.952 20 20 0 11.046-8.952 20-20 20C8.954 40 0 31.048 0 20zm15.875 6.151c-.175.75.303 2.805.303 2.805s1.469-1.47 1.678-2.229c.12-.437.691-3.572.691-3.572.343.652 1.342 1.225 2.404 1.225 3.163 0 5.309-2.883 5.309-6.743 0-2.917-2.473-5.637-6.23-5.637-4.673 0-7.03 3.352-7.03 6.147 0 1.693.64 3.197 2.016 3.759.224.094.424.003.491-.245.045-.173.154-.61.2-.79.066-.247.042-.333-.14-.55-.397-.466-.649-1.071-.649-1.93 0-2.485 1.86-4.71 4.843-4.71 2.642 0 4.093 1.614 4.093 3.77 0 2.837-1.255 5.23-3.118 5.23-1.03 0-1.8-.85-1.554-1.894.296-1.246.869-2.593.869-3.492 0-.805-.433-1.477-1.327-1.477-1.052 0-1.897 1.089-1.897 2.547 0 .928.314 1.558.314 1.558s-1.077 5.432-1.266 6.228z"/>
</svg>
