<svg xmlns="http://www.w3.org/2000/svg" width="40" height="40" viewBox="0 0 40 40">
  <path fill="#CD201F" fill-rule="evenodd" d="M20 40C8.954 40 0 31.046 0 20S8.954 0 20 0s20 8.954 20 20-8.954 20-20 20zm9.8-23.98s-.195-1.371-.795-1.976c-.76-.792-1.613-.796-2.004-.843C24.203 13 20.004 13 20.004 13h-.008s-4.198 0-6.997.201c-.391.047-1.243.05-2.004.843-.6.605-.795 1.976-.795 1.976s-.2 1.611-.2 3.222v1.51c0 1.61.2 3.221.2 3.221s.195 1.372.795 1.976c.76.793 1.76.768 2.205.85 1.6.154 6.8.201 6.8.201s4.203-.006 7.001-.208c.391-.046 1.244-.05 2.004-.843.6-.604.795-1.976.795-1.976s.2-1.61.2-3.22v-1.511c0-1.611-.2-3.222-.2-3.222zM18 23v-6l5 3.01L18 23z"/>
</svg>
