<svg xmlns="http://www.w3.org/2000/svg" width="40" height="40" viewBox="0 0 40 40">
  <path fill="#507299" fill-rule="evenodd" d="M20 40C8.954 40 0 31.046 0 20S8.954 0 20 0s20 8.954 20 20-8.954 20-20 20zm-1.257-12.059h1.434s.433-.048.655-.292c.203-.224.197-.644.197-.644s-.028-1.969.865-2.258c.88-.286 2.012 1.902 3.21 2.743.907.636 1.596.497 1.596.497l3.205-.046s1.676-.105.881-1.453c-.065-.11-.463-.997-2.383-2.82-2.01-1.907-1.74-1.598.68-4.897 1.475-2.01 2.064-3.236 1.88-3.762-.176-.5-1.26-.368-1.26-.368l-3.609.023s-.267-.037-.466.084c-.194.119-.318.396-.318.396s-.572 1.555-1.333 2.877c-1.607 2.79-2.25 2.938-2.512 2.764-.611-.404-.458-1.622-.458-2.487 0-2.704.4-3.832-.782-4.123-.392-.097-.68-.162-1.684-.172-1.288-.013-2.378.004-2.994.313-.411.206-.728.664-.535.69.239.033.779.15 1.065.548.37.514.357 1.67.357 1.67s.213 3.182-.496 3.577c-.487.272-1.154-.282-2.587-2.813-.734-1.297-1.288-2.73-1.288-2.73s-.106-.268-.297-.411c-.231-.174-.555-.229-.555-.229l-3.429.023s-.515.015-.703.244c-.169.203-.014.624-.014.624s2.685 6.423 5.724 9.66c2.789 2.967 5.954 2.772 5.954 2.772z"/>
</svg>
