<svg xmlns="http://www.w3.org/2000/svg" width="40" height="41" viewBox="0 0 40 41">
  <g fill="none" fill-rule="evenodd">
    <circle cx="20" cy="20" r="20" fill="#FFF" stroke="#CCC" stroke-width="2"/>
    <path fill="#FFF" d="M17.192 11.502a9.2 9.2 0 0 0-5.184 4.539 9.057 9.057 0 0 0-.797 2.302 9.18 9.18 0 0 0 .792 5.916 9.23 9.23 0 0 0 2.484 3.054 9.115 9.115 0 0 0 3.324 1.677c1.525.408 3.148.399 4.682.05 1.387-.32 2.7-.984 3.748-1.948 1.107-1.018 1.898-2.356 2.316-3.797.458-1.569.517-3.246.232-4.859h-8.607v3.57h4.987a4.309 4.309 0 0 1-1.83 2.828 5.24 5.24 0 0 1-2.016.797 6.035 6.035 0 0 1-2.184-.005 5.416 5.416 0 0 1-2.036-.88 5.656 5.656 0 0 1-2.095-2.808 5.551 5.551 0 0 1 0-3.561 5.714 5.714 0 0 1 1.328-2.159 5.426 5.426 0 0 1 2.734-1.52 5.458 5.458 0 0 1 2.686.109c.737.22 1.416.63 1.972 1.16l1.682-1.682c.295-.3.605-.59.89-.9a8.92 8.92 0 0 0-2.946-1.824 9.233 9.233 0 0 0-6.162-.06z"/>
    <path fill="#EA4335" d="M17.192 11.502a9.263 9.263 0 0 1 6.162.054A8.89 8.89 0 0 1 26.3 13.38c-.285.31-.595.6-.89.9l-1.682 1.682a4.982 4.982 0 0 0-1.972-1.16 5.4 5.4 0 0 0-2.686-.109 5.466 5.466 0 0 0-2.734 1.52 5.676 5.676 0 0 0-1.328 2.16c-.998-.778-1.997-1.55-3-2.327a9.191 9.191 0 0 1 5.184-4.544z"/>
    <path fill="#FBBC05" d="M11.216 18.338a9.123 9.123 0 0 1 .797-2.302c.998.777 1.997 1.55 3 2.326a5.518 5.518 0 0 0 0 3.561c-.998.777-1.997 1.554-2.995 2.326a9.102 9.102 0 0 1-.802-5.911z"/>
    <path fill="#4285F4" d="M20.182 18.431h8.607a10.82 10.82 0 0 1-.232 4.86c-.418 1.44-1.21 2.778-2.316 3.796l-2.907-2.257a4.309 4.309 0 0 0 1.83-2.828h-4.987c.005-1.19.005-2.38.005-3.57z"/>
    <path fill="#34A853" d="M12.008 24.254c.999-.772 1.997-1.55 2.995-2.326a5.685 5.685 0 0 0 2.095 2.808 5.45 5.45 0 0 0 2.036.88c.718.148 1.461.128 2.184.005a5.24 5.24 0 0 0 2.016-.796l2.907 2.257c-1.048.969-2.36 1.628-3.748 1.948-1.534.349-3.157.359-4.682-.05a9.039 9.039 0 0 1-3.324-1.677 9.21 9.21 0 0 1-2.479-3.049z"/>
  </g>
</svg>
