<svg xmlns="http://www.w3.org/2000/svg" width="30" height="30" viewBox="0 0 30 30">
  <g fill="none" fill-rule="evenodd">
    <path fill="#8433B7" d="M15 30C6.716 30 0 23.284 0 15 0 6.716 6.716 0 15 0c8.284 0 15 6.716 15 15 0 8.284-6.716 15-15 15zm0-21.147c2.002 0 2.24.008 3.03.044.73.033 1.128.155 1.392.258.35.136.6.299.862.561.262.262.425.512.56.862.104.264.226.661.259 1.392.036.79.044 1.028.044 3.03s-.008 2.24-.044 3.03c-.033.73-.155 1.128-.258 1.392-.136.35-.299.6-.561.862a2.323 2.323 0 0 1-.862.56c-.264.104-.661.226-1.392.259-.79.036-1.028.044-3.03.044s-2.24-.008-3.03-.044c-.73-.033-1.128-.155-1.392-.258-.35-.136-.6-.299-.862-.561a2.323 2.323 0 0 1-.56-.862c-.104-.264-.226-.661-.259-1.392-.036-.79-.044-1.028-.044-3.03s.008-2.24.044-3.03c.033-.73.155-1.128.258-1.392.136-.35.299-.6.561-.862.262-.262.512-.425.862-.56.264-.104.661-.226 1.392-.259.79-.036 1.028-.044 3.03-.044zm0-1.35c-2.036 0-2.292.008-3.091.044-.798.037-1.343.164-1.82.349a3.675 3.675 0 0 0-1.328.865 3.675 3.675 0 0 0-.865 1.328c-.185.477-.312 1.022-.349 1.82-.036.8-.045 1.055-.045 3.091 0 2.036.009 2.292.045 3.091.037.798.164 1.343.349 1.82.192.493.448.911.865 1.328.417.417.835.673 1.328.865.477.185 1.022.312 1.82.349.8.036 1.055.045 3.091.045 2.036 0 2.292-.009 3.091-.045.798-.037 1.343-.164 1.82-.349a3.675 3.675 0 0 0 1.328-.865c.417-.417.673-.835.865-1.328.185-.477.312-1.022.349-1.82.036-.8.045-1.055.045-3.091 0-2.036-.009-2.292-.045-3.091-.037-.798-.164-1.343-.349-1.82a3.675 3.675 0 0 0-.865-1.328 3.675 3.675 0 0 0-1.328-.865c-.477-.185-1.022-.312-1.82-.349-.8-.036-1.055-.045-3.091-.045zm0 3.647a3.85 3.85 0 1 0 0 7.7 3.85 3.85 0 0 0 0-7.7zm0 6.35a2.5 2.5 0 1 1 0-5 2.5 2.5 0 0 1 0 5zm4.902-6.502a.9.9 0 1 0-1.8 0 .9.9 0 0 0 1.8 0z"/>
  </g>
</svg>
