<svg xmlns="http://www.w3.org/2000/svg" width="40" height="41" viewBox="0 0 40 41">
  <path fill="#1DA1F2" fill-rule="evenodd" d="M0 20C0 8.954 8.952 0 20 0c11.046 0 20 8.952 20 20 0 11.046-8.952 20-20 20C8.954 40 0 31.048 0 20zm30.14-6.126a6.926 6.926 0 0 1-2.14.63 3.973 3.973 0 0 0 1.641-2.21 7.48 7.48 0 0 1-2.368.973c-.677-.78-1.648-1.267-2.715-1.267-2.056 0-3.722 1.788-3.722 4 0 .31.033.616.094.905-3.087-.159-5.833-1.757-7.67-4.17a4.213 4.213 0 0 0-.501 2.009c0 1.383.656 2.615 1.656 3.322a3.527 3.527 0 0 1-1.686-.498v.055c0 1.934 1.283 3.547 2.985 3.92-.312.091-.642.133-.983.133-.24 0-.467-.017-.696-.072.472 1.595 1.847 2.753 3.475 2.777A7.116 7.116 0 0 1 12 26.036c1.646 1.139 3.599 1.803 5.705 1.803 6.845 0 10.59-6.094 10.59-11.377 0-.17-.004-.34-.013-.512a8.093 8.093 0 0 0 1.858-2.076z"/>
</svg>
